<svg width="1885" height="371" viewBox="0 0 1885 371" fill="none" xmlns="http://www.w3.org/2000/svg">
<path d="M1424.74 81.2365C1400.68 27.7963 1341.32 3.54572 1274.16 20.9705C1252.22 28.1085 1238.76 38.7614 1228.27 49.3948C1207.65 72.8078 1187.32 91.0259 1176.58 146.486C1161.26 235.411 1246.29 295.481 1279.54 305.366C1315.05 317.484 1318.26 323.016 1372.38 328.171C1426.17 330.693 1459.39 326.516 1506.16 317.803C1553.74 312.527 1690.13 255.287 1733.91 224.103C1778.88 196.285 1830.49 161.82 1859 140.093C1868.1 133.228 1875.37 127.69 1881 123.437C1883.38 121.634 1884.58 120.912 1884.71 121.065C1884.71 121.066 1884.71 121.066 1884.71 121.066C1884.86 121.256 1883.35 122.805 1880.38 125.238C1865.67 137.271 1845.76 153.471 1819.27 173.556C1771.37 208.713 1764.84 212.375 1694.41 252.21C1622.35 289.698 1577.99 312.01 1483.09 329.775C1435.66 337.177 1406 338.686 1371.57 337.124C1337.65 334.126 1294.44 332.106 1236.62 293.739C1180.75 252.491 1167.94 210.087 1164.58 172.723C1162.88 134.766 1170.97 92.3186 1216.8 40.0539C1216.99 39.8451 1217.18 39.6362 1217.37 39.4274C1266 -18.2747 1369.73 -9.87907 1417.34 46.6274C1442.43 74.157 1447.39 114.759 1436.08 143.438C1425.42 172.738 1406.61 192.631 1391.98 206.819C1356.18 240.751 1306.82 268.769 1248.61 293.007C1207.67 310.021 1162.92 324.578 1116.29 335.792C1004.38 363.608 861.611 375.763 734.91 369.072C608.008 364.47 430.966 335.035 350.325 316.963C269.728 299.415 250.042 294.494 172.644 276.075C128.331 265.426 67.3272 248.723 16.4436 233.774C-8.97377 226.382 -3.51589 226.9 23.1386 233.577C61.1482 243.145 92.3762 251.938 112.166 255.98C152.056 264.114 168.798 267.628 218.214 280.867C267.59 293.932 292.096 296.24 320.936 302.697C350.395 308.492 348.793 313.032 498.731 335.465C648.821 355.858 732.025 356.929 789.191 357.525C846.334 358.365 966.259 354.919 1057.68 335.907C1105.32 326.78 1178.08 308.555 1243.64 280.993C1304.87 256.109 1357.15 223.142 1382.63 197.558C1409.08 171.489 1417.35 154.595 1423.53 139.62C1428.64 124.607 1434.17 109.131 1424.74 81.2365Z" fill="white"/>
<path d="M1424.74 81.2365C1400.68 27.7963 1341.32 3.54572 1274.16 20.9705C1252.22 28.1085 1238.76 38.7614 1228.27 49.3948C1207.65 72.8078 1187.32 91.0259 1176.58 146.486C1161.26 235.411 1246.29 295.481 1279.54 305.366C1315.05 317.484 1318.26 323.016 1372.38 328.171C1426.17 330.693 1459.39 326.516 1506.16 317.803C1553.74 312.527 1690.13 255.287 1733.91 224.103C1778.88 196.285 1830.49 161.82 1859 140.093C1868.1 133.228 1875.37 127.69 1881 123.437C1883.38 121.634 1884.58 120.912 1884.71 121.065C1884.71 121.066 1884.71 121.066 1884.71 121.066C1884.86 121.256 1883.35 122.805 1880.38 125.238C1865.67 137.271 1845.76 153.471 1819.27 173.556C1771.37 208.713 1764.84 212.375 1694.41 252.21C1622.35 289.698 1577.99 312.01 1483.09 329.775C1435.66 337.177 1406 338.686 1371.57 337.124C1337.65 334.126 1294.44 332.106 1236.62 293.739C1180.75 252.491 1167.94 210.087 1164.58 172.723C1162.88 134.766 1170.97 92.3186 1216.8 40.0539C1216.99 39.8451 1217.18 39.6362 1217.37 39.4274C1266 -18.2747 1369.73 -9.87907 1417.34 46.6274C1442.43 74.157 1447.39 114.759 1436.08 143.438C1425.42 172.738 1406.61 192.631 1391.98 206.819C1356.18 240.751 1306.82 268.769 1248.61 293.007C1207.67 310.021 1162.92 324.578 1116.29 335.792C1004.38 363.608 861.611 375.763 734.91 369.072C608.008 364.47 430.966 335.035 350.325 316.963C269.728 299.415 250.042 294.494 172.644 276.075C128.331 265.426 67.3272 248.723 16.4436 233.774C-8.97377 226.382 -3.51589 226.9 23.1386 233.577C61.1482 243.145 92.3762 251.938 112.166 255.98C152.056 264.114 168.798 267.628 218.214 280.867C267.59 293.932 292.096 296.24 320.936 302.697C350.395 308.492 348.793 313.032 498.731 335.465C648.821 355.858 732.025 356.929 789.191 357.525C846.334 358.365 966.259 354.919 1057.68 335.907C1105.32 326.78 1178.08 308.555 1243.64 280.993C1304.87 256.109 1357.15 223.142 1382.63 197.558C1409.08 171.489 1417.35 154.595 1423.53 139.62C1428.64 124.607 1434.17 109.131 1424.74 81.2365Z" fill="url(#paint0_linear_933_4822)"/>
<defs>
<linearGradient id="paint0_linear_933_4822" x1="407.144" y1="316.832" x2="1116.23" y2="-533.936" gradientUnits="userSpaceOnUse">
<stop stop-color="#4C4DC3"/>
<stop offset="1" stop-color="#01FFB7"/>
</linearGradient>
</defs>
</svg>
