<svg width="1025" height="1024" viewBox="0 0 1025 1024" fill="none" xmlns="http://www.w3.org/2000/svg">
<path d="M-2.37784e-06 1023.31C44.0534 1011.45 86.5837 995.121 127.435 974.921C310.211 883.827 450.417 724.474 554.441 550.869C606.44 463.405 650.069 371.054 683.131 274.436C699.446 226.201 713.344 176.968 721.386 126.096C725.104 101.43 728.022 74.6818 725.361 48.3132C723.802 36.1734 721.749 20.8171 710.636 8.74553C704.676 2.36821 695.329 -0.746088 687.143 0.151676C678.045 1.21072 673.136 3.58155 665.729 7.67746C662.176 9.73941 658.64 12.2468 655.092 15.1632C469.418 271.448 377.535 707.367 665.25 918.775C732.038 963.062 808.946 993.61 888.647 1002.29C933.864 1008.71 978.782 1013.12 1024.23 1017.61C1024.23 1017.61 1024.23 1017.61 1024.23 1017.61C978.903 1012.06 934.082 1006.64 889.111 999.289C809.53 988.792 735.336 957.631 669.303 912.333C391.917 704.988 489.192 271.48 665.252 27.5228C668.243 25.0639 671.098 23.0588 673.758 21.5158C684.766 15.2289 693.403 13.8188 699.22 19.9254C705.277 25.9636 708.396 39.2499 709.522 50.047C711.991 73.7391 709.367 99.8007 705.799 123.705C698.125 173.204 684.641 221.885 668.783 269.597C636.634 365.244 594.133 457.163 543.5 544.425C442.106 717.694 306.016 877.671 126.059 972.211C85.8077 993.182 43.7643 1010.43 -2.37784e-06 1023.31Z" fill="url(#paint0_linear_933_4820)"/>
<defs>
<linearGradient id="paint0_linear_933_4820" x1="176.925" y1="878.107" x2="913.79" y2="544.754" gradientUnits="userSpaceOnUse">
<stop stop-color="#4C4DC3"/>
<stop offset="1" stop-color="#01FFB7"/>
</linearGradient>
</defs>
</svg>
