<svg width="1920" height="909" viewBox="0 0 1920 909" fill="none" xmlns="http://www.w3.org/2000/svg">
<path d="M0 625.605C0 625.605 0 625.605 0 625.605C68.3377 682.836 170.109 689.814 250.354 652.893C358.619 603.791 423.445 494.755 461.172 386.196C481.767 326.734 502.4 267.297 519.276 206.479C527.547 176.128 535.133 145.281 538.755 113.654C540.438 97.7581 541.312 81.594 538.366 65.2586C535.972 49.5414 525.629 30.7132 507.426 26.6023C474.95 20.3047 456.614 50.1855 443.573 70.6651C430.328 93.2359 420.767 117.594 412.757 142.157C396.96 191.374 387.484 242.56 382.481 293.774C373.757 395.679 377.726 504.222 429.233 596.841C453.713 641.116 499.443 681.018 553.727 681.461C607.183 682.836 655.391 659.411 698.711 633.516C785.414 579.706 858.564 509.431 930.765 439.577C1028.98 335.78 1135.43 202.911 1102.06 46.4339C1089.94 15.3837 1054.29 -1.24892 1023.48 0.0732751C979.77 -0.186954 933.191 15.1533 904.039 50.5362C874.327 85.6522 869.089 135.131 878.499 177.414C898.569 264.002 956.875 331.831 1018.27 390.657C1096.57 462.746 1137.67 571.617 1128.65 677.652C1121.58 776.231 1063.21 912.516 952.482 895.362C918.707 888.971 893.445 861.906 891.983 827.779C889.438 794.461 900.445 759.781 914.189 728.452C942.714 665.1 985.802 608.059 1033.15 556.938C1129.04 454.875 1247.49 372.055 1380.42 326.445C1471.81 295.511 1564.55 268.742 1658.57 247.942C1744.66 229.55 1831.92 212.934 1920 213.184C1920 213.184 1920 213.184 1920 213.184C1831.9 211.865 1744.34 227.49 1657.93 244.97C1563.56 264.771 1470.39 290.634 1378.52 320.753C1243.97 365.499 1123.83 447.932 1026.12 550.343C977.854 601.7 933.792 658.991 904.013 723.901C889.709 756.112 877.712 791.811 880.197 828.74C880.847 866.642 912.568 901.018 949.647 907.489C1077.03 925.299 1134.04 780.19 1142.67 678.779C1152.56 568.843 1110.04 454.849 1028.7 379.613C968.499 321.852 912.248 254.84 893.896 174.178C869.573 92.4 939.267 9.8786 1023.48 16.0556C1051.22 15.4275 1077.24 27.9279 1087.43 52.9253C1117.94 190.057 1016.31 328.6 919.884 428.452C848.112 498.22 775.415 568.206 691.028 620.926C648.988 646.382 602.518 668.479 554.239 667.283C505.644 666.957 464.813 632.271 440.896 589.998C391.377 502.349 386.145 395.258 394.273 294.871C398.885 244.388 407.927 193.803 423.083 145.46C430.752 121.354 439.976 97.4855 452.456 75.8801C464.416 55.5962 482.978 30.7338 504.924 36.0072C533.681 43.729 532.475 83.7094 529.808 112.702C526.543 143.468 519.301 174.139 511.339 204.332C495.086 264.894 475.007 324.46 454.976 384.074C418.534 492.111 355.564 600.425 249.096 650.125C170.183 687.477 69.0409 681.974 0 625.605Z" fill="url(#paint0_linear_933_4818)"/>
<defs>
<linearGradient id="paint0_linear_933_4818" x1="403.993" y1="605.53" x2="1793.66" y2="80.1498" gradientUnits="userSpaceOnUse">
<stop stop-color="#4C4DC3"/>
<stop offset="1" stop-color="#01FFB7"/>
</linearGradient>
</defs>
</svg>
