<svg width="1920" height="990" viewBox="0 0 1920 990" fill="none" xmlns="http://www.w3.org/2000/svg">
<path d="M0 670.493C63.4631 703.891 131.349 728.508 202.136 739.791C444.637 782.142 673.484 639.649 840.007 474.842C908.792 407.756 966.18 328.544 1004.59 239.837C1023.15 195.554 1038.16 148.402 1037.26 98.5258C1036.49 74.0599 1030.87 47.5424 1013.22 27.6209C995.561 7.35797 968.18 -0.164918 943.163 0.00650259C895.859 -0.381189 845.504 16.0588 813.905 54.1714C781.697 91.9899 775.839 145.532 785.972 191.454C807.576 285.495 870.922 359.454 937.684 423.558C958.824 443.505 977.638 465.488 993.739 489.322C1050.79 572.974 1070.92 679.715 1051.74 779.073C1034.53 872.519 969.397 991.965 865.924 972.612C829.288 965.622 802.096 936.495 800.499 899.53C797.755 863.436 809.734 825.746 824.709 791.697C855.785 722.837 902.718 660.799 954.278 605.199C1058.7 494.192 1187.63 404.109 1332.27 354.436C1455.15 312.865 1579.98 277.953 1707.55 253.951C1777.72 241.279 1848.53 229.848 1920 230.572C1920 230.572 1920 230.572 1920 230.572C1848.52 228.779 1777.45 239.213 1707.01 250.959C1578.94 273.28 1453.43 306.745 1329.82 347.091C1183.12 395.734 1052.12 485.459 945.575 597.02C892.938 652.971 844.888 715.388 812.398 786.185C796.795 821.321 783.686 860.269 786.422 900.679C787.126 942.169 822.066 979.894 862.588 986.894C983.192 1007.56 1048.45 878.141 1067.12 782.043C1087.29 678.806 1066.51 567.638 1007 480.364C990.216 455.523 970.613 432.642 948.643 411.938C882.94 349.149 821.443 276.338 801.176 188.256C774.252 98.9697 850.813 7.93032 943.163 14.5736C990.896 10.7934 1024.79 52.3897 1023.41 98.9859C1024.58 145.254 1010.51 191.481 992.618 234.774C955.642 321.75 899.635 400.421 832.413 467.07C668.033 632.271 444.157 775.439 202.595 736.786C132.041 726.512 63.9543 702.947 0 670.493Z" fill="url(#paint0_linear_933_4824)"/>
<defs>
<linearGradient id="paint0_linear_933_4824" x1="403.993" y1="657.657" x2="1821.33" y2="165.406" gradientUnits="userSpaceOnUse">
<stop stop-color="#4C4DC3"/>
<stop offset="1" stop-color="#01FFB7"/>
</linearGradient>
</defs>
</svg>
